#!OML:ASF F:\VICON\USERDATA\INSTALL\rory3\rory3.ASF
:FULLY-SPECIFIED
:DEGREES
246
root 4.63101 17.3327 0.77481 12.2254 -1.77573 -2.27263
lowerback -3.2912 -0.773153 10.7261
upperback -6.71938 -0.998312 1.01886
thorax -5.4239 -1.02302 -4.90881
lowerneck -9.70888 3.92736 -0.308729
upperneck 42.2989 5.36655 1.83517
head 16.927 2.40787 1.76191
rclavicle 1.76173e-014 -3.33958e-014
rhumerus 2.33202 -20.0585 -2.70684
rradius 116.305
rwrist -64.3465
rhand -1.35317 -43.9199
rfingers 7.12502
rthumb 24.2937 -72.4006
lclavicle 1.76173e-014 -3.33958e-014
lhumerus 32.2759 31.3754 -1.72523
lradius 61.2726
lwrist 46.7495
lhand -27.6836 -24.3071
lfingers 7.12502
lthumb -1.08032 5.66996
rfemur -18.3862 4.19646 0.446358
rtibia 40.2753
rfoot 11.4388 -19.5782
rtoes -10.9406
lfemur -21.5804 3.1717 -28.7752
ltibia 27.5417
lfoot -17.6224 9.7976
ltoes 12.8015
247
root 4.62389 17.3287 0.768499 12.2779 -1.63743 -2.31436
lowerback -3.37297 -0.849727 10.6329
upperback -6.68318 -1.11236 1.0486
thorax -5.35196 -1.06922 -4.82522
lowerneck -9.63579 3.81598 -0.697901
upperneck 42.3235 5.16453 2.14929
head 16.8938 2.30353 1.93626
rclavicle -4.42544e-014 2.62396e-014
rhumerus 2.20724 -19.8716 -2.96076
rradius 116.281
rwrist -64.2643
rhand -1.5681 -44.0913
rfingers 7.12502
rthumb 24.0876 -72.5994
lclavicle -4.42544e-014 2.62396e-014
lhumerus 32.3451 31.4202 -1.32297
lradius 61.7366
lwrist 46.7546
lhand -27.193 -23.9426
lfingers 7.12502
lthumb -0.606496 6.0363
rfemur -18.7498 4.08454 0.673632
rtibia 40.784
rfoot 10.847 -20.0781
rtoes -10.1867
lfemur -21.8158 3.07281 -28.6832
ltibia 27.7639
lfoot -17.5503 9.72899
ltoes 12.8558
248
root 4.62053 17.329 0.765027 12.2876 -1.4646 -2.26611
lowerback -3.46058 -0.935307 10.4684
upperback -6.60653 -1.24245 1.05095
thorax -5.23246 -1.11702 -4.73191
lowerneck -9.43 3.62972 -1.34512
upperneck 42.1134 4.84079 2.62543
head 16.6829 2.13634 2.19469
rclavicle 3.7297e-014 -4.77083e-015
rhumerus 2.17517 -19.9296 -3.30985
rradius 116.172
rwrist -64.1952
rhand -1.4155 -44.0898
rfingers 7.12502
rthumb 24.2339 -72.5785
lclavicle 3.7297e-014 -4.77083e-015
lhumerus 32.6728 31.5963 -0.583411
lradius 62.089
lwrist 46.544
lhand -27.0699 -24.3043
lfingers 7.12502
lthumb -0.487581 5.67489
rfemur -19.033 3.90586 0.80288
rtibia 41.2495
rfoot 10.6993 -20.2182
rtoes -10.129
lfemur -21.9724 2.89465 -28.6943
ltibia 27.9669
lfoot -17.5142 9.73068
ltoes 12.9622
249
root 4.62233 17.3262 0.76323 12.2046 -1.30487 -2.24894
lowerback -3.51276 -1.012 10.4417
upperback -6.4584 -1.36184 1.02403
thorax -5.06168 -1.16234 -4.7474
lowerneck -9.66797 3.58858 -1.12858
upperneck 42.233 4.85594 2.30563
head 16.834 2.12673 2.02936
rclavicle -7.95139e-015 -3.18055e-015
rhumerus 2.07805 -19.9937 -3.66087
rradius 116.093
rwrist -64.0349
rhand -1.20136 -43.8464
rfingers 7.12502
rthumb 24.4392 -72.3075
lclavicle -7.95139e-015 -3.18055e-015
lhumerus 32.7305 31.5371 -0.405779
lradius 62.4479
lwrist 46.695
lhand -27.43 -25.0219
lfingers 7.12502
lthumb -0.835363 4.95617
rfemur -19.1975 3.78687 0.928011
rtibia 41.7063
rfoot 10.2012 -20.369
rtoes -9.33889
lfemur -21.9428 2.73335 -28.6976
ltibia 28.1212
lfoot -17.6363 9.77196
ltoes 13.2635
250
root 4.62292 17.3214 0.757749 12.0824 -1.24861 -2.28404
lowerback -3.43397 -1.05905 10.4669
upperback -6.36135 -1.42165 1.00581
thorax -5.01347 -1.18788 -4.77975
lowerneck -10.3172 3.81007 0.05587
upperneck 43.0147 5.35954 1.21784
head 17.5488 2.35022 1.46263
rclavicle -5.51627e-015 3.26007e-014
rhumerus 1.84673 -19.9005 -3.82774
rradius 116.104
rwrist -64.0322
rhand -0.93006 -43.5781
rfingers 7.12502
rthumb 24.6992 -72.0038
lclavicle -5.51627e-015 3.26007e-014
lhumerus 32.5565 31.3312 -0.529686
lradius 62.963
lwrist 47.1334
lhand -28.0766 -25.2414
lfingers 7.12502
lthumb -1.4599 4.73336
rfemur -19.3884 3.819 1.07809
rtibia 42.1978
rfoot 9.5752 -20.5047
rtoes -8.04933
lfemur -21.8721 2.6297 -28.6506
ltibia 28.2483
lfoot -17.7519 9.86841
ltoes 13.4684
251
root 4.61926 17.3174 0.748281 11.9948 -1.3173 -2.21106
lowerback -3.28788 -1.08598 10.2914
upperback -6.30308 -1.44378 0.976198
thorax -5.0294 -1.18992 -4.71078
lowerneck -9.99057 3.76703 -0.0318354
upperneck 42.8545 5.32126 1.18028
head 17.3674 2.32124 1.4378
rclavicle -4.44781e-015 2.06736e-014
rhumerus 1.53738 -19.789 -3.88966
rradius 116.187
rwrist -64.0781
rhand -0.668683 -43.2758
rfingers 7.12502
rthumb 24.9497 -71.667
lclavicle -4.44781e-015 2.06736e-014
lhumerus 32.5045 31.2673 -0.388991
lradius 63.5008
lwrist 47.3139
lhand -28.8237 -25.1867
lfingers 7.12502
lthumb -2.18139 4.78194
rfemur -19.7194 3.98988 1.10281
rtibia 42.7391
rfoot 9.76835 -20.1512
rtoes -9.0593
lfemur -21.9015 2.53147 -28.721
ltibia 28.3896
lfoot -17.7266 10.068
ltoes 13.4161
252
root 4.61182 17.3127 0.739092 11.9764 -1.4162 -2.1234
lowerback -3.20621 -1.11727 10.0315
upperback -6.24158 -1.47939 0.972366
thorax -5.0022 -1.19195 -4.56897
lowerneck -9.98729 3.70881 -0.068211
upperneck 42.9011 5.24958 1.15037
head 17.3948 2.27905 1.41951
rclavicle -2.18912e-014 2.34566e-014
rhumerus 1.30168 -19.6399 -3.9981
rradius 116.293
rwrist -64.076
rhand -1.11722 -43.0955
rfingers 7.12502
rthumb 24.5199 -71.5457
lclavicle -2.18912e-014 2.34566e-014
lhumerus 32.4153 31.2075 -0.236863
lradius 63.9529
lwrist 47.2678
lhand -29.0453 -24.8073
lfingers 7.12502
lthumb -2.39548 5.15895
rfemur -20.1886 4.32364 1.12322
rtibia 43.2985
rfoot 10.6319 -19.3615
rtoes -12.4225
lfemur -22.0296 2.42196 -28.8027
ltibia 28.5119
lfoot -17.6058 10.3152
ltoes 13.2494
253
root 4.60287 17.31 0.731334 11.998 -1.4949 -2.20436
lowerback -3.17009 -1.12856 9.92651
upperback -6.22485 -1.48913 1.03016
thorax -4.999 -1.18941 -4.44894
lowerneck -9.98672 3.62943 -0.135343
upperneck 43.0427 5.14735 1.14176
head 17.4769 2.22027 1.4144
rclavicle -2.11209e-014 1.74931e-014
rhumerus 1.08325 -19.4071 -4.05376
rradius 116.366
rwrist -64.173
rhand -1.71902 -43.1754
rfingers 7.12502
rthumb 23.9429 -71.7026
lclavicle -2.11209e-014 1.74931e-014
lhumerus 32.2802 30.9823 -0.132367
lradius 64.3384
lwrist 47.1268
lhand -28.6031 -24.5163
lfingers 7.12502
lthumb -1.96839 5.45438
rfemur -20.7378 4.77528 1.32584
rtibia 43.8448
rfoot 11.0841 -18.9622
rtoes -13.7039
lfemur -22.1993 2.37806 -28.6984
ltibia 28.6328
lfoot -17.4863 10.5435
ltoes 13.0648
